 <svg  version="1.0" xmlns="http://www.w3.org/2000/svg"  width="800.000000pt" height="248.000000pt" viewBox="0 0 800.000000 248.000000"  preserveAspectRatio="xMidYMid meet">  <g transform="translate(0.000000,248.000000) scale(0.050000,-0.050000)" fill="#20ee49" stroke="none"> <path d="M60 4905 c-45 -57 -43 -152 3 -194 17 -15 19 -10 7 19 -37 96 -34 128 17 179 28 28 43 51 34 51 -10 0 -37 -25 -61 -55z"/> <path d="M256 4919 c55 -51 57 -146 4 -199 -37 -37 -40 -67 -40 -420 0 -433 -5 -423 163 -320 54 33 106 60 117 60 11 0 20 9 20 21 0 12 -57 -11 -127 -50 -70 -39 -133 -71 -140 -71 -39 0 -13 734 27 770 67 61 33 250 -45 250 -12 0 -3 -18 21 -41z"/> <path d="M105 4316 c-4 -330 -10 -397 -36 -411 -53 -30 -60 -154 -11 -203 63 -63 65 -737 2 -817 -87 -110 -14 -250 127 -242 46 2 106 -8 133 -22 48 -24 48 -24 16 10 -25 26 -61 34 -134 32 -147 -5 -218 121 -122 217 61 61 61 757 0 835 -51 64 -50 106 0 171 38 48 41 75 35 438 l-6 386 -4 -394z"/> <path d="M7551 4678 c-189 -46 -316 -362 -193 -483 19 -20 20 -14 3 31 -61 163 -2 341 138 414 91 48 381 17 381 -39 0 -44 -83 -89 -121 -65 -43 27 -171 33 -186 9 -5 -9 26 -12 70 -8 53 5 91 -3 114 -25 33 -29 40 -27 94 30 l59 61 -47 39 c-26 21 -63 38 -83 38 -19 0 -61 4 -92 9 -32 4 -94 0 -137 -11z"/> <path d="M8064 4686 l-85 -8 5 -304 6 -304 220 0 220 0 0 70 0 70 -145 6 c-129 5 -145 10 -145 45 0 35 14 39 130 39 l130 0 0 80 0 80 -130 0 c-117 0 -130 4 -130 40 0 36 13 40 141 40 l141 0 -6 75 -6 75 -130 2 c-71 1 -168 -2 -216 -6z m336 -66 l0 -60 -140 0 -140 0 0 -60 0 -60 130 0 130 0 0 -60 0 -60 -130 0 -130 0 0 -60 0 -60 150 0 150 0 0 -60 0 -60 -210 0 -210 0 0 289 0 289 85 7 c47 5 137 10 200 12 l115 3 0 -60z"/> <path d="M8535 4686 c-31 -8 -35 -40 -35 -317 l0 -309 80 0 80 0 0 122 c0 147 29 150 96 9 25 -53 51 -91 57 -85 23 23 -99 214 -136 214 -32 0 -37 -17 -37 -120 0 -120 0 -120 -60 -120 l-60 0 0 288 0 289 61 13 c98 22 298 -9 341 -52 74 -74 37 -248 -61 -281 -15 -5 2 -50 49 -127 l72 -120 -76 -12 -76 -12 85 -3 c103 -4 106 15 25 137 -72 109 -72 106 -10 168 182 182 -87 399 -395 318z"/> <path d="M2769 4655 c-5 -15 -8 -157 -5 -316 l6 -289 80 0 80 0 6 125 6 125 108 0 108 0 6 -125 6 -125 70 0 70 0 6 315 5 315 -80 0 -81 0 0 -110 0 -110 -109 0 -109 0 -6 105 -6 105 -75 6 c-50 4 -79 -3 -86 -21z m151 -106 l0 -111 125 6 125 6 6 105 c6 102 8 105 65 105 l59 0 0 -300 0 -300 -60 0 -60 0 0 130 0 130 -130 0 -130 0 0 -130 0 -130 -70 0 -70 0 0 300 0 300 70 0 70 0 0 -111z"/> <path d="M3394 4665 c-5 -8 44 -94 109 -191 112 -170 117 -182 117 -305 l0 -129 70 0 70 0 0 129 c0 123 5 138 110 298 61 93 110 179 110 191 0 35 -174 28 -187 -8 -7 -16 -3 -30 8 -30 10 0 19 9 19 20 0 11 32 20 70 20 76 0 84 -10 43 -58 -118 -141 -193 -304 -193 -422 0 -115 -2 -120 -50 -120 -48 0 -50 5 -50 120 0 112 -8 132 -110 289 -60 93 -110 174 -110 180 0 22 133 10 157 -14 20 -20 23 -18 12 10 -14 36 -176 53 -195 20z"/> <path d="M4060 4360 l0 -320 80 0 80 0 0 120 0 120 67 0 c185 0 313 154 234 279 -12 19 -15 1 -7 -51 16 -122 -48 -186 -199 -202 l-115 -12 0 -117 c0 -117 0 -117 -60 -117 l-60 0 0 300 0 300 145 0 c90 0 167 -12 203 -30 32 -17 62 -27 67 -22 30 30 -129 72 -274 72 l-161 0 0 -320z"/> <path d="M4604 4365 l6 -315 210 -1 210 -1 -205 7 -205 6 0 300 0 299 200 0 c199 0 200 0 200 -49 0 -46 -9 -49 -140 -62 -135 -14 -140 -16 -137 -67 2 -44 4 -45 11 -9 7 38 26 45 147 57 l139 14 0 68 0 68 -221 0 -220 0 5 -315z"/> <path d="M5290 4662 c178 -13 257 -38 277 -87 5 -14 11 -16 11 -3 5 66 -81 98 -275 101 l-193 3 180 -14z"/> <path d="M5684 4365 l6 -315 200 0 200 0 6 75 6 75 -131 0 -131 0 0 240 0 240 -81 0 -80 0 5 -315z m136 55 l0 -240 130 0 130 0 0 -60 0 -60 -190 0 -190 0 0 300 0 300 60 0 60 0 0 -240z"/> <path d="M6160 4360 l0 -321 225 5 225 6 0 70 0 70 -145 6 c-139 6 -145 8 -145 55 0 47 5 49 130 49 l130 0 -3 75 c-3 74 -4 74 -11 10 l-9 -65 -128 0 -129 0 0 -70 0 -70 150 0 150 0 0 -60 0 -60 -210 0 -210 0 0 300 0 300 200 0 c200 0 200 0 200 -50 0 -45 -8 -50 -77 -50 -153 0 -203 -20 -200 -77 2 -45 4 -46 11 -10 10 50 58 66 192 67 l97 0 -7 65 -6 65 -215 6 -215 5 0 -321z"/> <path d="M6680 4360 l0 -320 135 1 c74 1 153 9 175 17 22 9 -34 12 -125 6 l-165 -9 0 302 0 303 137 0 c124 0 257 -27 283 -58 6 -7 28 -25 50 -41 30 -22 27 -16 -9 25 -61 68 -152 94 -336 94 l-145 0 0 -320z"/> <path d="M3601 4598 c-2 -31 65 -138 85 -138 26 0 101 119 86 135 -5 5 -25 -21 -43 -58 -32 -60 -37 -63 -57 -30 -36 59 -71 104 -71 91z"/> <path d="M8643 4508 c3 -74 4 -75 11 -13 10 78 81 90 146 25 41 -41 53 -32 23 17 -10 14 -55 31 -100 37 l-83 11 3 -77z"/> <path d="M4200 4480 l0 -82 73 6 c43 3 82 21 95 41 34 54 -9 104 -95 111 l-73 6 0 -82z m150 0 c0 -42 -11 -51 -65 -56 -61 -6 -65 -3 -65 56 0 59 4 62 65 56 54 -5 65 -14 65 -56z"/> <path d="M5260 4481 c0 -76 4 -81 58 -81 160 0 184 144 25 156 l-83 6 0 -81z m162 27 c32 -39 -21 -88 -96 -88 -38 0 -46 11 -46 60 0 70 92 88 142 28z"/> <path d="M6845 4547 c-17 -7 -25 -65 -25 -191 l0 -181 91 10 c186 21 270 241 122 318 -42 22 -42 21 2 -27 97 -105 37 -250 -111 -270 l-86 -11 6 167 6 168 70 -5 c56 -3 62 -1 30 14 -45 21 -69 22 -105 8z"/> <path d="M7227 4422 c24 -118 -22 -228 -125 -297 -77 -51 -68 -60 17 -16 111 58 186 348 104 399 -9 6 -7 -33 4 -86z"/> <path d="M1045 4443 c72 -17 135 -73 135 -121 0 -21 12 -42 27 -48 43 -16 -39 140 -86 165 -21 12 -59 20 -85 19 -41 -2 -40 -4 9 -15z"/> <path d="M944 4415 c-12 -15 -30 -49 -40 -76 -13 -33 -78 -82 -193 -146 -95 -54 -169 -101 -165 -106 19 -19 373 205 374 237 0 18 15 48 32 66 18 17 28 36 23 41 -5 6 -19 -2 -31 -16z"/> <path d="M5000 4380 l0 -60 -130 0 -130 0 0 -70 0 -70 155 4 155 4 -145 7 c-139 6 -145 9 -145 56 0 47 5 49 130 49 l130 0 0 70 c0 39 -4 70 -10 70 -5 0 -10 -27 -10 -60z"/> <path d="M7660 4360 c0 -72 5 -80 50 -80 57 0 73 -70 20 -86 -22 -7 -20 -9 5 -7 62 6 59 113 -4 113 -43 0 -51 9 -51 60 0 59 1 60 110 60 l110 0 0 -158 0 -159 -72 -24 c-116 -38 -317 -17 -377 40 -28 26 -56 43 -62 36 -76 -75 313 -148 462 -86 l69 29 0 171 0 171 -130 0 -130 0 0 -80z"/> <path d="M5518 4353 l-52 -46 37 -72 c20 -40 47 -79 60 -87 13 -8 2 23 -24 69 l-46 83 43 41 c38 35 55 60 39 58 -3 0 -28 -21 -57 -46z"/> <path d="M7462 4374 c-6 -105 119 -240 172 -186 7 6 -5 12 -28 12 -52 0 -98 52 -122 140 -11 39 -21 54 -22 34z"/> <path d="M5124 4204 l-4 -166 75 6 75 6 6 115 c7 128 28 144 74 55 41 -80 57 -77 24 5 -51 124 -114 100 -114 -44 0 -121 0 -121 -59 -121 l-59 0 -7 155 -7 155 -4 -166z"/> <path d="M1268 4243 c7 -11 37 -33 67 -49 30 -15 150 -83 266 -150 177 -103 225 -122 297 -119 130 5 196 -133 109 -228 -41 -45 -22 -49 22 -6 95 96 -7 285 -141 260 -53 -10 -103 11 -310 130 -325 187 -325 187 -310 162z"/> <path d="M1085 4174 c-47 -21 -116 -203 -138 -363 -9 -69 -19 -86 -45 -78 -27 9 -27 7 -3 -10 39 -27 61 -11 61 47 0 161 137 441 192 392 29 -27 288 -166 288 -156 0 9 -129 87 -271 165 -27 15 -55 16 -84 3z"/> <path d="M845 4136 c-25 -12 -45 -30 -45 -40 0 -9 18 -8 40 4 23 12 49 17 58 11 10 -6 23 3 29 19 14 35 -17 37 -82 6z"/> <path d="M5425 4100 c36 -60 195 -86 195 -32 0 16 -9 35 -20 42 -11 7 -14 -1 -8 -19 21 -53 -119 -41 -162 14 l-35 45 30 -50z"/> <path d="M862 4007 c-38 -142 -47 -241 -24 -256 13 -8 17 -2 11 15 -6 16 3 90 20 164 34 144 28 207 -7 77z"/> <path d="M495 3924 c-150 -83 -166 -105 -70 -102 55 2 58 4 19 15 -40 12 -32 21 75 79 67 37 121 71 121 75 0 13 0 13 -145 -67z"/> <path d="M1490 3970 c22 -18 92 -61 155 -96 84 -46 115 -75 115 -106 0 -100 -297 -386 -577 -556 -130 -79 -166 -115 -61 -61 233 120 622 469 651 582 18 75 -3 98 -173 189 -82 44 -132 66 -110 48z"/> <path d="M540 3803 c17 -10 61 -25 100 -33 83 -18 456 -190 538 -249 67 -47 112 -55 52 -9 -52 40 -306 169 -460 233 -124 52 -286 93 -230 58z"/> <path d="M255 3692 c-53 -40 -53 -764 0 -804 58 -44 183 -27 460 62 39 13 45 8 45 -38 0 -60 -27 -74 -245 -128 -154 -39 -160 -46 -68 -97 37 -20 159 -90 271 -155 205 -118 234 -127 210 -63 -10 24 -18 27 -28 10 -12 -18 -407 190 -476 251 -3 3 74 26 170 53 165 45 176 51 183 105 10 89 -18 99 -150 54 -373 -125 -387 -112 -387 346 0 450 8 460 300 382 130 -35 134 -35 109 -12 -56 52 -338 77 -394 34z"/> <path d="M5115 3621 c-94 -30 -195 -103 -225 -162 -47 -91 -35 -92 30 -3 135 187 466 220 685 70 86 -59 92 -84 33 -138 -40 -36 -43 -36 -68 -2 -67 92 -308 138 -437 84 -99 -41 -171 -184 -111 -221 15 -9 18 0 9 28 -62 195 422 272 538 85 22 -36 58 -23 108 40 l47 60 -47 41 c-119 106 -411 167 -562 118z"/> <path d="M1812 3589 c-6 -18 -3 -26 8 -19 13 8 20 -90 20 -273 l0 -286 -124 125 c-106 107 -133 124 -175 114 -38 -10 -11 24 105 131 86 79 151 148 146 154 -5 5 -53 -35 -106 -89 -142 -143 -631 -486 -694 -486 -28 0 -9 108 23 134 32 25 31 26 -10 6 -51 -24 -67 -160 -20 -160 31 0 270 138 399 231 102 74 136 87 97 40 -21 -25 -4 -49 98 -144 68 -62 137 -140 154 -172 16 -32 35 -54 41 -47 18 18 -43 98 -174 228 -117 115 -121 122 -82 143 57 31 94 8 229 -143 l113 -126 0 335 c0 303 -14 392 -48 304z"/> <path d="M2780 3000 l0 -620 325 1 c179 1 340 8 359 15 19 8 -122 11 -315 7 l-349 -6 0 601 0 602 314 0 c440 0 546 -59 546 -303 0 -87 -60 -217 -100 -217 -11 0 -20 -11 -20 -25 0 -101 129 116 136 229 16 271 -93 336 -561 336 l-335 0 0 -620z"/> <path d="M3880 3000 l0 -620 410 0 410 0 0 80 0 80 -319 0 -320 0 -6 205 -7 205 -4 -215 -4 -215 320 0 320 0 0 -60 0 -60 -390 0 -390 0 0 600 0 600 390 0 390 0 0 -60 0 -60 -320 0 -320 0 0 -200 0 -200 325 4 325 5 -315 6 -315 6 0 180 0 179 320 0 320 0 0 80 0 80 -410 0 -410 0 0 -620z"/> <path d="M5900 3175 c0 -245 7 -455 15 -468 8 -13 12 183 9 435 l-6 458 70 0 70 0 6 -439 c4 -329 13 -446 32 -465 22 -21 23 -16 5 30 -12 34 -21 228 -21 475 l0 419 -90 0 -90 0 0 -445z"/> <path d="M6817 3605 l87 -8 -8 -443 c-5 -314 -15 -458 -33 -491 -15 -25 -21 -51 -15 -57 38 -39 60 142 68 559 l8 455 -97 -3 -97 -4 87 -8z"/> <path d="M890 3540 c7 -12 -12 -15 -49 -7 l-61 12 4 -277 5 -278 6 267 c5 231 10 265 37 255 17 -7 39 -12 49 -12 10 0 21 -83 25 -185 l7 -185 -2 195 c0 107 3 195 7 195 5 0 66 -33 138 -73 71 -39 124 -63 117 -51 -13 21 -196 127 -259 150 -21 8 -31 6 -24 -6z"/> <path d="M1280 3463 c0 -11 18 -26 40 -33 22 -7 40 -21 40 -31 0 -37 -78 -61 -125 -39 -43 21 -43 21 -6 -9 70 -56 203 15 135 73 -53 46 -84 60 -84 39z"/> <path d="M2940 3280 l0 -200 229 0 c126 0 233 7 238 15 5 8 -93 12 -219 8 l-228 -6 0 183 0 184 222 -7 c296 -9 382 -95 285 -283 -30 -58 -30 -62 -1 -37 47 39 63 152 33 226 -37 90 -121 117 -358 117 l-201 0 0 -200z"/> <path d="M5050 3200 c14 -23 143 -80 177 -79 19 0 -163 98 -183 99 -4 0 -1 -9 6 -20z"/> <path d="M4860 3186 c0 -93 147 -183 430 -265 167 -48 222 -83 260 -168 l28 -63 -12 60 c-17 90 -92 138 -324 210 -238 73 -292 103 -345 189 -20 34 -37 50 -37 37z"/> <path d="M5378 3077 c261 -81 356 -188 337 -380 -24 -247 -291 -369 -635 -291 -61 14 -65 13 -30 -10 81 -52 406 -34 513 29 212 124 238 420 50 564 -66 50 -285 134 -340 129 -13 -1 35 -20 105 -41z"/> <path d="M932 2924 c9 -161 89 -470 128 -494 10 -6 -2 45 -28 114 -42 110 -59 193 -101 486 -4 33 -4 -15 1 -106z"/> <path d="M3500 3026 c0 -10 26 -33 58 -51 168 -100 177 -350 18 -495 -36 -33 -56 -60 -44 -60 85 0 205 236 179 354 -23 104 -211 329 -211 252z"/> <path d="M2944 2735 l-4 -215 185 0 c323 1 413 48 414 217 1 101 -82 204 -162 201 -38 -1 -35 -5 17 -20 81 -24 126 -87 126 -178 0 -151 -93 -200 -384 -200 l-175 0 -6 205 -7 205 -4 -215z"/> <path d="M2007 2883 c86 -95 17 -234 -109 -217 -54 7 -93 -2 -141 -32 -100 -63 -155 -95 -325 -191 -85 -48 -151 -91 -146 -95 4 -5 124 59 266 142 218 126 272 149 350 150 109 0 158 43 158 138 0 74 -31 142 -64 142 -12 0 -8 -16 11 -37z"/> <path d="M6720 2809 c0 -137 -118 -265 -250 -272 -48 -2 -51 -4 -15 -11 128 -25 285 123 285 268 0 36 -4 66 -10 66 -5 0 -10 -23 -10 -51z"/> <path d="M1754 2793 c-9 -24 -550 -346 -634 -378 -20 -8 -21 -12 -4 -13 27 -2 112 40 274 138 55 32 165 96 245 141 80 45 145 95 145 110 0 37 -13 37 -26 2z"/> <path d="M827 2741 c21 -107 55 -226 63 -218 9 10 -50 264 -64 277 -7 5 -6 -21 1 -59z"/> <path d="M4851 2637 l-53 -62 46 -50 c25 -27 73 -62 106 -79 68 -35 53 -18 -55 61 l-76 56 43 60 43 60 52 -50 c65 -63 183 -114 257 -111 64 1 47 10 -57 27 -40 7 -113 43 -163 81 l-91 69 -52 -62z"/> <path d="M5532 2645 c-17 -52 -73 -87 -172 -106 l-70 -14 75 -3 c84 -2 208 88 191 139 -7 20 -14 15 -24 -16z"/> <path d="M5940 2648 c0 -41 90 -157 158 -202 220 -148 603 -98 718 94 l30 50 -48 -52 c-210 -229 -657 -202 -807 47 -28 47 -51 75 -51 63z"/> <path d="M6124 2640 c15 -50 137 -120 204 -118 59 2 59 3 -14 17 -41 8 -103 41 -137 73 -34 32 -58 45 -53 28z"/> <path d="M380 2593 c0 -4 113 -73 251 -154 210 -121 256 -157 280 -215 16 -39 36 -64 43 -57 7 8 3 24 -10 37 -13 13 -24 39 -24 58 0 23 -76 78 -225 163 -270 155 -315 179 -315 168z"/> <path d="M1215 2318 c-19 -11 -35 -35 -35 -52 0 -18 -16 -51 -35 -72 -27 -31 -29 -38 -5 -30 17 5 39 36 50 68 11 32 33 69 50 82 37 30 23 32 -25 4z"/> </g> </svg> 